<svg version="1.2" xmlns="http://www.w3.org/2000/svg" viewBox="0 0 31 30" width="31" height="30"><defs><clipPath clipPathUnits="userSpaceOnUse" id="cp1"><path d="m0.5 0h30v30h-30z"/></clipPath></defs><style>.a{fill:#bf5ec6}.b{fill:#bff747}</style><filter id="f0"><feFlood flood-color="#bf5ec6" flood-opacity="1" /><feBlend mode="normal" in2="SourceGraphic"/><feComposite in2="SourceAlpha" operator="in" /></filter><g clip-path="url(#cp1)" filter="url(#f0)"><path class="a" d="m8.6 3.8c4 0 6.9 3.2 6.9 8.1 0 7.1-5.4 12.1-13 13.1-0.8 0.1-1-0.9-0.4-1.2 3-1.3 4.5-3 4.7-4.6 0.1-1.3-0.6-2.3-1.4-2.5-2.2-0.6-3.6-3.3-3.6-6.1 0-3.8 3-6.8 6.8-6.8z"/><path class="b" d="m23.6 3.8c4 0 6.9 3.2 6.9 8.1 0 7.1-5.4 12.1-13 13.1-0.8 0.1-1-0.9-0.4-1.2 3-1.3 4.5-3 4.7-4.6 0.1-1.3-0.6-2.3-1.4-2.5-2.2-0.6-3.6-3.3-3.6-6.1 0-3.8 3-6.8 6.8-6.8z"/></g></svg>